<svg width="20" height="20" viewBox="0 0 50 54" fill="none" xmlns="http://www.w3.org/2000/svg">
<path fill-rule="evenodd" clip-rule="evenodd" d="M3.12025 0.609471C1.22363 1.00622 0.00125118 2.63397 0.155626 4.5571C0.260126 5.85972 0.921501 6.80635 2.1875 7.46547C2.98413 7.8801 4.36725 7.93185 5.28288 7.5811L5.87813 7.3531L6.43125 7.67722C7.19375 8.1241 7.80138 8.91172 8.12675 9.87497C8.5005 10.9813 8.41413 11.6335 7.65238 13.4576C5.91463 17.6188 5.41338 20.4041 5.7445 24.0587C5.97013 26.5492 6.44438 28.2866 7.44213 30.2785C8.65038 32.6905 9.78063 34.033 12.5271 36.3187L14.3968 37.8746L14.4239 40.5936C14.4465 42.8682 14.496 43.5167 14.727 44.5625C15.5563 48.3178 17.5001 51.3408 20.4375 53.4431C25.076 56.763 31.7599 56.6546 37.1015 53.1727C38.3864 52.3352 40.5425 50.2648 41.3299 49.1125C41.8671 48.3261 41.9556 48.2533 42.5238 48.1316C43.7604 47.8663 45.5432 48.07 46.2945 48.5622C46.4529 48.666 46.6201 48.7131 46.6662 48.6671C46.7122 48.621 46.75 44.4302 46.75 39.3541V30.125H43.6875H40.625L40.6227 34.4687C40.6196 40.3431 40.3812 41.8711 39.0554 44.5131C36.8356 48.9368 32.7996 51.5495 28.1875 51.5482C23.6289 51.5471 20.2811 48.7856 19.1121 44.0625C18.8285 42.9163 18.665 39.7246 18.834 38.6307L18.9393 37.949L20.3759 36.7921C23.4923 34.2826 24.857 32.7771 26.0043 30.5828C27.3411 28.026 27.9134 25.667 27.9196 22.6875C27.9266 19.3192 27.4874 17.1671 26.1468 14C25.357 12.1343 25.3264 12.0231 25.321 11C25.3165 10.1235 25.366 9.84235 25.6041 9.39385C25.9748 8.69572 26.7483 7.8576 27.2923 7.5646C27.6915 7.3496 27.75 7.34785 28.2219 7.5366C30.9019 8.60897 33.6908 6.6996 33.4695 3.94397C33.3613 2.59485 32.6461 1.4736 31.5458 0.927346C30.8725 0.593221 28.8919 0.585721 28.2305 0.914846C27.5994 1.22897 26.7646 2.1066 26.3823 2.8581C26.0999 3.41335 25.9553 3.54035 25.1446 3.94535C22.8015 5.11597 21.3061 7.60085 21.1604 10.5665C21.0764 12.2733 21.2724 13.2308 22.1191 15.25C22.8416 16.9731 23.2735 18.3182 23.5636 19.7488C23.8828 21.3235 23.772 24.1253 23.3253 25.7767C22.4616 28.9691 21.2766 30.6417 18.0821 33.1777C17.0165 34.0238 16.8158 34.1376 16.5821 34.0278C16.0479 33.7768 13.1731 31.2641 12.5283 30.4845C11.289 28.9862 10.3283 26.6502 9.93813 24.1875C9.489 21.3517 9.995 18.5771 11.6441 14.8325C12.794 12.2212 12.7775 9.53797 11.5968 7.17185C10.8301 5.63547 9.48238 4.32747 8.05738 3.73685C7.628 3.55885 7.375 3.37885 7.375 3.25147C7.375 2.66547 6.02975 1.17247 5.183 0.818596C4.61888 0.582971 3.695 0.489221 3.12025 0.609471ZM40.7912 2.18947C40.4602 2.53497 40.0127 3.25035 39.638 4.03322C38.256 6.92035 37.8384 8.72272 37.8355 11.8125C37.8327 14.7703 38.0355 15.694 39.6604 20.125C39.8999 20.7781 40.1925 21.7485 40.3105 22.2812L40.5251 23.25H43.7C46.6394 23.25 46.8752 23.2337 46.878 23.0312C46.8795 22.9108 47.1943 21.9125 47.5773 20.8125C47.9604 19.7125 48.4346 18.3467 48.6314 17.7776C50.3955 12.6735 50.0387 8.04335 47.5231 3.39635C46.7584 1.9836 46.4883 1.74997 45.6188 1.74997C45.1955 1.74997 45.0217 1.82822 44.675 2.17497C44.0876 2.76235 44.1133 3.17635 44.8273 4.6341C45.9424 6.91047 46.378 8.71322 46.3882 11.093C46.3947 12.626 46.1074 14.1458 45.5314 15.625C45.0986 16.7362 43.8439 19.357 43.7395 19.3676C43.6187 19.3798 42.1516 16.247 41.8159 15.2597C41.1311 13.2466 40.924 10.56 41.3026 8.60472C41.5274 7.44422 42.138 5.7176 42.7645 4.47147C43.0315 3.94022 43.25 3.33272 43.25 3.1216C43.25 2.27847 42.5884 1.62497 41.7347 1.62497C41.4205 1.62497 41.2134 1.74897 40.7912 2.18947ZM33.5629 23.4062C33.3827 23.5617 33.1852 23.9111 33.1215 24.1875C32.9586 24.8925 32.972 28.2781 33.1403 28.9463C33.3973 29.967 34.3392 30.4085 35.2525 29.9362C35.6521 29.7295 35.8768 29.3898 35.9956 28.8125L36.0728 28.4375L43.9538 28.4053L51.8349 28.3731L51.9823 28.8648C52.1426 29.4001 52.7044 29.9523 53.2204 30.0818C53.4001 30.127 53.7745 30.0848 54.0545 29.9881C54.892 29.6986 55.0001 29.3341 54.9969 26.8125C54.9936 24.3903 54.8971 23.8031 54.4371 23.4062C54.0459 23.0687 53.2943 23.0311 52.734 23.3207C52.3536 23.5175 52 24.144 52 24.621C52 24.8736 51.9584 24.875 44.0774 24.875H36.1546L36.0161 24.3246C35.8192 23.5427 35.2904 23.125 34.4974 23.125C34.0464 23.125 33.8046 23.1977 33.5629 23.4062ZM42.6875 49.7998C41.8686 50.0587 41.4621 50.3181 40.6732 51.0847C39.7226 52.0085 39.375 52.7336 39.375 53.7925C39.375 55.1711 39.9785 56.3336 41.1369 57.1863C43.4724 58.9057 46.6139 58.0706 47.8481 55.4022C48.3237 54.3737 48.3211 53.0855 47.8415 52.1242C47.2565 50.9518 46.5039 50.2848 45.2977 49.8698C44.4925 49.5928 43.432 49.5643 42.6875 49.7998Z" fill="white"/>
</svg>
