<svg xmlns="http://www.w3.org/2000/svg" fill="none" viewBox="0 0 128 128">
    <path fill-rule="evenodd" clip-rule="evenodd" d="M7.39411 0.622122C3.003 1.54672 0.172939 5.34007 0.53035 9.82177C0.772291 12.8574 2.30352 15.0635 5.23459 16.5995C7.07895 17.5658 10.2812 17.6864 12.4011 16.869L13.7792 16.3376L15.0598 17.093C16.8251 18.1344 18.2319 19.9699 18.9852 22.2147C19.8506 24.793 19.6506 26.3127 17.887 30.5637C13.8637 40.2612 12.7032 46.752 13.4698 55.2689C13.9922 61.0728 15.0902 65.1216 17.4002 69.7635C20.1976 75.3845 22.8143 78.5131 29.1731 83.8399L33.5017 87.4658L33.5645 93.8022C33.6169 99.103 33.7315 100.614 34.2663 103.051C36.1862 111.803 40.6867 118.848 47.4873 123.747C58.2265 131.484 73.7011 131.231 86.0681 123.117C89.0429 121.165 94.0348 116.34 95.8577 113.655C97.1016 111.822 97.3065 111.653 98.6218 111.369C101.485 110.751 105.613 111.225 107.352 112.372C107.719 112.614 108.106 112.724 108.213 112.617C108.319 112.509 108.407 102.743 108.407 90.9136V69.4058H101.316H94.2258L94.2206 79.5286C94.2134 93.2184 93.6615 96.7793 90.5918 102.936C85.4526 113.246 76.1084 119.334 65.4303 119.331C54.8761 119.329 47.1253 112.893 44.4188 101.886C43.7621 99.2152 43.3836 91.777 43.7749 89.2278L44.0186 87.6391L47.3447 84.9431C54.5597 79.0949 57.7194 75.5864 60.3756 70.4729C63.4707 64.5143 64.7956 59.0168 64.8101 52.0733C64.8263 44.2238 63.8093 39.2084 60.7055 31.8277C58.877 27.48 58.8061 27.2207 58.7937 24.8364C58.7833 22.7938 58.8979 22.1387 59.4492 21.0935C60.3073 19.4665 62.0981 17.5133 63.3576 16.8305C64.2819 16.3295 64.4174 16.3254 65.5099 16.7653C71.7146 19.2644 78.1715 14.8147 77.6593 8.39293C77.4086 5.24889 75.753 2.6359 73.2054 1.36291C71.6466 0.584252 67.0611 0.566774 65.5298 1.33378C64.0686 2.06582 62.136 4.11106 61.2507 5.86238C60.597 7.15635 60.2621 7.45231 58.3854 8.39613C52.9605 11.1242 49.4984 16.915 49.1609 23.8262C48.9665 27.8039 49.4202 30.0353 51.3807 34.7407C53.0534 38.7563 54.0533 41.8911 54.725 45.225C55.4638 48.8946 55.2074 55.4241 54.1731 59.2725C52.1736 66.7121 49.4301 70.6101 42.0341 76.52C39.567 78.4919 39.1022 78.7569 38.5613 78.5012C37.3244 77.9162 30.6687 72.0605 29.1757 70.2436C26.3065 66.7521 24.0822 61.3082 23.179 55.5689C22.1392 48.9604 23.3107 42.4944 27.1287 33.7678C29.791 27.6825 29.7528 21.4293 27.0191 15.9153C25.2442 12.3348 22.1238 9.28665 18.8246 7.91024C17.8305 7.49542 17.2448 7.07595 17.2448 6.77911C17.2448 5.41348 14.1302 1.93415 12.1698 1.10947C10.8637 0.560365 8.72478 0.341888 7.39411 0.622122ZM94.6107 4.3042C93.8444 5.10936 92.8083 6.77649 91.9407 8.60092C88.741 15.3292 87.7742 19.5295 87.7675 26.7299C87.7611 33.623 88.2305 35.7754 91.9925 46.1016C92.547 47.6236 93.2245 49.885 93.4977 51.1265L93.9946 53.3841H101.345C108.15 53.3841 108.696 53.3463 108.703 52.8744C108.706 52.5938 109.435 50.2672 110.322 47.7037C111.209 45.1403 112.307 41.9575 112.762 40.6312C116.847 28.7364 116.021 17.9462 110.196 7.11673C108.426 3.82442 107.801 3.27997 105.787 3.27997C104.808 3.27997 104.405 3.46233 103.602 4.2704C102.243 5.63924 102.302 6.60404 103.955 10.0012C106.537 15.3061 107.545 19.5073 107.569 25.0531C107.584 28.6257 106.919 32.1676 105.585 35.6146C104.583 38.2043 101.678 44.3118 101.437 44.3366C101.157 44.3651 97.7603 37.0642 96.9829 34.7635C95.3976 30.072 94.918 23.811 95.7946 19.2545C96.315 16.55 97.7287 12.5262 99.1792 9.62223C99.7974 8.38419 100.303 6.96846 100.303 6.47644C100.303 4.5116 98.7714 2.98867 96.7951 2.98867C96.0676 2.98867 95.588 3.27764 94.6107 4.3042ZM77.8754 53.7483C77.4584 54.1107 77.0011 54.9248 76.8536 55.5689C76.4765 57.2119 76.5074 65.1018 76.897 66.6591C77.492 69.0376 79.6729 70.0665 81.7873 68.966C82.7125 68.4841 83.2326 67.6927 83.5078 66.3471L83.6863 65.4732L101.933 65.3984L120.179 65.3232L120.52 66.4692C120.892 67.7166 122.192 69.0035 123.387 69.3053C123.803 69.4105 124.67 69.3123 125.318 69.0868C127.257 68.4122 127.507 67.5627 127.5 61.6863C127.492 56.0417 127.269 54.6732 126.204 53.7483C125.298 52.9618 123.558 52.8741 122.261 53.549C121.38 54.0075 120.561 55.4675 120.561 56.5792C120.561 57.1679 120.465 57.1711 102.219 57.1711H83.8759L83.5552 55.8885C83.0994 54.0664 81.875 53.0928 80.039 53.0928C78.9948 53.0928 78.4351 53.2624 77.8754 53.7483ZM99.0009 115.257C97.1051 115.86 96.1639 116.464 94.3375 118.251C92.1366 120.404 91.3318 122.094 91.3318 124.561C91.3318 127.774 92.729 130.483 95.4109 132.47C100.818 136.477 108.091 134.531 110.949 128.313C112.05 125.916 112.044 122.914 110.934 120.673C109.579 117.941 107.837 116.387 105.044 115.42C103.18 114.774 100.725 114.708 99.0009 115.257Z" fill="white"/>
    <style>
        path { fill: #000; }
        @media (prefers-color-scheme: dark) {
            path { fill: #FFF; }
        }
    </style>
</svg>
